<?xml version="1.0" encoding="UTF-8"?>
<svg id="Layer_1" xmlns="http://www.w3.org/2000/svg" version="1.1" viewBox="0 0 30 50">
  <!-- Generator: Adobe Illustrator 29.8.2, SVG Export Plug-In . SVG Version: 2.1.1 Build 3)  -->
  <defs>
    <style>
      .st0 {
        fill: #f9a51a;
      }

      .st1 {
        fill: #fbf4ec;
      }

      .st2 {
        fill: #f68e1e;
      }

      .st3 {
        fill: #005f59;
      }

      .st4 {
        fill: #ec2e91;
      }
    </style>
  </defs>
  <g>
    <rect class="st1" x="-3.2" y="-.7" width="36.4" height="51.4"/>
    <g>
      <path class="st4" d="M11.9,28.3s1.6-2.3,4.7-1.4c3.1.9,4.9-.5,4.1-1.6-.8-1-7,0-5.1-1.6,1.9-1.6,6.1-3.8,4.5-4.9-1.6-1.1-5.7,1.9-4.5,0,1.2-1.9,6.3-6.7,4.2-8.3-2.1-1.6-4.2,1.7-5.6,4.6-1.5,2.8-2.5,2.3-2.2,1s-1.1-4.5-2.3-2.9c-1.1,1.6,0,8.3-1.4,8.1-1.3-.2-3.1-.6-2.1,1.8,1,2.4,1.9,8.6,1.9,8.6l1.9.4s.2-1.1.6-2c.4-.9,1.1-1.8,1.1-1.8Z"/>
      <path class="st0" d="M22.2,38.8c.1-.2,4.4-5.9,1.1-10.1-3.3-4.2-8.5-1.7-8.5-1.7l7.4,11.8Z"/>
      <path class="st3" d="M6.4,38.3c.3.2.6.4.9.6.4.1.8.2,1.2.1.8,0,1.5-.5,2.1-.9.6-.5,1.2-1,1.8-1.5.3-.2.7-.5,1.1-.6.4-.1.7-.3,1.1-.4.2,0,.4,0,.6-.1.3,0,.6,0,.8,0,.4,0,.8,0,1.2,0,.4,0,.8-.1,1.2-.3.3-.1.6-.3.9-.5.2-.1.3-.3.4-.4.1-.1.2-.3.3-.5.4-.6.4-1.4.1-2.1-.2-.4-.4-.7-.7-.9-.3-.2-.6-.4-1-.5-.7-.3-1.5-.4-2.3-.4-1.6,0-3.1.2-4.6.6-.8.2-1.5.5-2.3.8-.8.4-1.6.8-2.3,1.5-.5.5-1,1.1-1.2,1.8-.3.6-.4,1.4-.2,2,.1.7.5,1.3,1,1.8Z"/>
    </g>
  </g>
  <path class="st2" d="M15.3,8.5c-.5-1.4-2.6-2-3.5-.7-.4.6-.3,1.5.3,1.9.6.4,1.5.1,1.8-.5,0-.2,0-.4-.2-.4-.2,0-.4,0-.4.2-.1.3-.5.3-.7,0-.3-.3-.2-.7,0-1,.4-.4,1-.4,1.5-.1.4.2.7.7.7,1.2,0,1-1.1,1.6-2,1.5-1-.2-1.7-1.1-1.7-2.1,0-1.1.8-2.1,1.9-2.1.2,0,.3-.2.3-.4,0-.2-.2-.3-.4-.3-1.6,0-2.6,1.6-2.5,3.1.1,1.4,1.4,2.6,2.8,2.5,1.4,0,2.6-1.5,2.2-2.9Z"/>
</svg>